<svg id="_x33_0" enable-background="new 0 0 64 64" height="512" viewBox="0 0 64 64" width="512" xmlns="http://www.w3.org/2000/svg"><g><g><g><path d="m21 10h-4.47-.53c-2.21 0-4 1.79-4 4v2h-1c-.88 0-1.67.38-2.21.98l-.67-3.34c-.08-.4-.12-.82-.12-1.23 0-1.05.26-2.07.74-2.98.49-.9 1.19-1.69 2.07-2.27l.19-.13c.6-1.51 1.64-2.76 2.93-3.63 1.29-.88 2.83-1.37 4.46-1.37h3.6c5.53 0 10.01 4.48 10.01 10.01 0 .66-.07 1.32-.19 1.96l-.6 2.98c-.54-.6-1.33-.98-2.21-.98h-1v-2c0-1.1-.9-2-2-2h-1c-1.63 0-3.09-.79-4-2z" fill="#656d78"/></g><g><path d="m25.93 31.38-.93 4.62-3.06-1.83-1.94-1.17 4-2c.66.09 1.3.22 1.93.38z" fill="#a0d468"/></g><g><path d="m20 33-1.94 1.17-3.06 1.83-.94-4.72 1.94-.28z" fill="#a0d468"/></g><g><path d="m38.07 40.28 1.93-10.28h6v15.87c0 3.39-2.74 6.13-6.13 6.13-1.82 0-3.54-.81-4.71-2.21l-3.16-3.79v3h-7l-1.33-1.33-2.67-10.67.94-2.83 3.06 1.83.93-4.62c5.13 1.26 9.47 4.5 12.14 8.9z" fill="#b4dd7f"/></g><g><path d="m15 36 3.06-1.83.94 2.83-1.2 4.8-.51-.51c-.18-.18-.44-.29-.7-.29-.71 0-1.36.29-1.83.76s-.76 1.12-.76 1.83c0 .26.11.52.29.7l4.71 4.71h-1v-.15c0-1.02-.83-1.85-1.85-1.85-.71 0-1.35.4-1.66 1.02l-.49.98v6h-2c-2.76 0-5.26-1.12-7.07-2.93s-2.93-4.31-2.93-7.07c0-6.89 5.06-12.72 11.88-13.7l.18-.02z" fill="#b4dd7f"/></g><g><path d="m19 37h2l2.67 10.67-5.87-5.87z" fill="#ffeaa7"/></g><g><path d="m21.94 34.17-.94 2.83h-2l-.94-2.83 1.94-1.17z" fill="#fcd770"/></g><g><path d="m32 52v10h-16v-7h3c1.66 0 3-1.34 3-3l1 1 5 2-2-5-1-1h7z" fill="#e6e9ed"/></g><g><path d="m14.76 41.76c.47-.47 1.12-.76 1.83-.76.26 0 .52.11.7.29l.51.51 5.87 5.87 1.33 1.33 1 1 2 5-5-2-1-1c0-.83-.34-1.58-.88-2.12s-1.29-.88-2.12-.88l-4.71-4.71c-.18-.18-.29-.44-.29-.7 0-.71.29-1.36.76-1.83z" fill="#ff826e"/></g><g><path d="m40 22v-1c0-1.66 1.34-3 3-3 .83 0 1.58.34 2.12.88s.88 1.29.88 2.12v9h-6l-.83-.83c-.75-.75-1.17-1.77-1.17-2.83v-2.34c0-.55.22-1.05.59-1.41.36-.37.86-.59 1.41-.59z" fill="#f0d0b4"/></g><g><path d="m14.49 48.02c.31-.62.95-1.02 1.66-1.02 1.02 0 1.85.83 1.85 1.85v.15h1c.83 0 1.58.34 2.12.88s.88 1.29.88 2.12c0 1.66-1.34 3-3 3h-3-2v-6z" fill="#f0d0b4"/></g><g><path d="m23.22 27.88.78 3.12-4 2-4-2 .78-3.12c.39.08.8.12 1.22.12h4c.42 0 .83-.04 1.22-.12z" fill="#f0d0b4"/></g><g><path d="m31.21 16.98c.49.53.79 1.24.79 2.02 0 .83-.34 1.58-.88 2.12s-1.29.88-2.12.88h-1v-6h1c.88 0 1.67.38 2.21.98z" fill="#f0d0b4"/></g><g><path d="m16.53 10h4.47c.91 1.21 2.37 2 4 2h1c1.1 0 2 .9 2 2v2 6c0 2.89-2.05 5.31-4.78 5.88-.39.08-.8.12-1.22.12h-4c-.42 0-.83-.04-1.22-.12-2.73-.57-4.78-2.99-4.78-5.88v-6-2c0-2.21 1.79-4 4-4z" fill="#f0d0b4"/></g><g><path d="m8.79 16.98c.54-.6 1.33-.98 2.21-.98h1v6h-1c-.83 0-1.58-.34-2.12-.88s-.88-1.29-.88-2.12c0-.78.3-1.49.79-2.02z" fill="#f0d0b4"/></g></g><g><path d="m47 45.871v-24.871c0-2.206-1.794-4-4-4s-4 1.794-4 4v.184c-1.161.414-2 1.514-2 2.816v2.343c0 1.336.521 2.592 1.465 3.536l.455.455-1.39 7.415c-3.144-4.019-7.647-6.732-12.718-7.624l-.392-1.565c2.367-.876 4.13-2.993 4.5-5.56h.08c2.206 0 4-1.794 4-4 0-.847-.268-1.63-.719-2.277l.505-2.524c.142-.711.214-1.436.214-2.158 0-6.07-4.938-11.009-11.009-11.009h-3.606c-3.576 0-6.757 2.084-8.19 5.336-2.002 1.362-3.195 3.615-3.195 6.04 0 .479.048.961.142 1.433l.577 2.882c-.451.647-.719 1.43-.719 2.277 0 2.206 1.794 4 4 4h.08c.37 2.567 2.133 4.683 4.5 5.56l-.387 1.545-1.456.208c-7.261 1.038-12.737 7.351-12.737 14.687 0 6.065 4.935 11 11 11h3v7h18v-10h30v-2h-18.19c1.347-1.298 2.19-3.115 2.19-5.129zm-8-21.871c0-.552.448-1 1-1s1 .448 1 1v1h2v-1c0-1.302-.839-2.402-2-2.816v-.184c0-1.103.897-2 2-2s2 .897 2 2v8h-4.586l-.535-.535c-.566-.567-.879-1.32-.879-2.122zm-1.987 16.504-.996 5.311 1.965.369 2.848-15.184h4.17v14.871c0 2.828-2.301 5.129-5.129 5.129-1.526 0-2.963-.673-3.94-1.846l-2.931-3.517v-4.637h-2v7h-5.586l-.845-.845-2.528-10.115.458-1.374 3.203 1.922.988-4.94c4.249 1.297 7.905 4.049 10.323 7.856zm-10.808 12.701-1.426-.57.855-.855zm-11.205-3.969.382-.764c.145-.291.438-.472.764-.472.47 0 .854.384.854.854v1.146h2c1.103 0 2 .897 2 2s-.897 2-2 2h-4zm4.461-1.189-4.461-4.461c0-.874.712-1.586 1.586-1.586l8 8-1.586 1.586-.047-.047c-.213-1.834-1.658-3.279-3.492-3.492zm-3.629-16.013 2.091 1.045-2.221 1.332-.459-2.294zm8.311.013c.204.032.402.082.604.121l-.449 2.244-2.221-1.332zm-4.362 5.953h.438l1.602 6.407-2.915-2.915zm.219-3.834.742.445-.463 1.389h-.558l-.463-1.388zm9-13.166v-4c1.103 0 2 .897 2 2s-.897 2-2 2zm-20-2c0-1.103.897-2 2-2v4c-1.103 0-2-.897-2-2zm4 3v-8c0-1.619 1.291-2.934 2.897-2.99.592 1.12 1.458 2.095 2.548 2.822l1.109-1.664c-1.599-1.066-2.554-2.851-2.554-4.773v-.395h-2v.395c0 .575.073 1.138.195 1.687-2.373.387-4.195 2.437-4.195 4.918v1c-.54 0-1.055.11-1.526.305l-.372-1.856c-.068-.343-.102-.693-.102-1.041 0-1.778.884-3.43 2.364-4.417l.449-.3.115-.288c1.063-2.655 3.597-4.371 6.456-4.371h3.606c4.968 0 9.009 4.041 9.009 9.009 0 .59-.059 1.185-.175 1.767l-.3 1.498c-.469-.196-.984-.306-1.524-.306v-1c0-1.654-1.346-3-3-3h-1c-2.206 0-4-1.794-4-4h-2c0 3.309 2.691 6 6 6h1c.552 0 1 .448 1 1v8c0 2.757-2.243 5-5 5h-4c-2.757 0-5-2.243-5-5zm5 7h4c.156 0 .31-.013.463-.023l.372 1.487-2.835 1.418-2.835-1.418.372-1.487c.153.01.307.023.463.023zm-15 16c0-6.089 4.365-11.353 10.268-12.564l1.03 5.151 3.203-1.922.458 1.374-.766 3.065c-.196-.062-.399-.104-.607-.104-1.978 0-3.586 1.608-3.586 3.586 0 .526.214 1.042.586 1.414l1.312 1.312c-.55.269-1.018.693-1.305 1.266l-.211.422h-1.382c-1.654 0-3-1.346-3-3v-5h-2v5c0 2.757 2.243 5 5 5h1v4h-1c-4.963 0-9-4.037-9-9zm14 16v-5h2c1.532 0 2.849-.875 3.521-2.142.038.021.067.055.108.071l5 2c.12.048.246.071.371.071.26 0 .516-.102.707-.293.283-.283.37-.707.222-1.078l-1.852-4.629h3.923v11zm16-12.237 1.394 1.672c.166.199.342.387.526.564h-1.92z"/><circle cx="16" cy="16" r="1"/><circle cx="24" cy="16" r="1"/><path d="m25 21h-2c0 1.103-.897 2-2 2h-4v2h4c2.206 0 4-1.794 4-4z"/><path d="m55 6c0-1.654 1.346-3 3-3s3 1.346 3 3-1.346 3-3 3h-1v4h2v-2.101c2.279-.465 4-2.484 4-4.899 0-2.757-2.243-5-5-5s-5 2.243-5 5v1h2z"/><path d="m57 15h2v2h-2z"/><path d="m41 8c0-1.654 1.346-3 3-3s3 1.346 3 3-1.346 3-3 3h-1v4h2v-2.101c2.279-.465 4-2.484 4-4.899 0-2.757-2.243-5-5-5s-5 2.243-5 5v1h2z"/><path d="m56 21c-3.859 0-7 3.141-7 7v1h2v-1c0-2.757 2.243-5 5-5s5 2.243 5 5-2.243 5-5 5h-1v8h2v-6.071c3.388-.486 6-3.408 6-6.929 0-3.859-3.141-7-7-7z"/><path d="m55 43h2v2h-2z"/></g></g></svg>